<?xml version="1.0" encoding="utf-8"?>
<!-- Generator: Adobe Illustrator 16.0.0, SVG Export Plug-In . SVG Version: 6.00 Build 0)  -->
<!DOCTYPE svg PUBLIC "-//W3C//DTD SVG 1.1//EN" "http://www.w3.org/Graphics/SVG/1.1/DTD/svg11.dtd">
<svg version="1.1" id="Layer_1" xmlns="http://www.w3.org/2000/svg" xmlns:xlink="http://www.w3.org/1999/xlink" x="0px" y="0px"
	 width="512px" height="512px" viewBox="0 0 512 512" enable-background="new 0 0 512 512" xml:space="preserve">
<g id="pot_leprechaun">
	<g>
		<path fill="#434A54" d="M490.649,298.671c-1.422,0-2.875-0.297-4.281-0.906l-48.655-21.328c-5.391-2.375-7.844-8.655-5.484-14.062
			c2.359-5.391,8.656-7.844,14.047-5.484l48.671,21.327c5.391,2.375,7.858,8.672,5.484,14.062
			C498.681,296.28,494.759,298.671,490.649,298.671z"/>
	</g>
	<g>
		<path fill="#434A54" d="M21.339,298.671c-4.102,0-8.016-2.391-9.773-6.391c-2.367-5.391,0.094-11.688,5.492-14.062l48.656-21.327
			c5.398-2.359,11.687,0.094,14.054,5.484c2.367,5.406-0.094,11.687-5.484,14.062l-48.663,21.328
			C24.23,298.374,22.769,298.671,21.339,298.671z"/>
	</g>
	<path fill="#FFCE54" d="M201,192.002c0,11.78-23.875,21.327-53.335,21.327c-29.452,0-53.327-9.547-53.327-21.327
		c0-11.781,23.875-21.344,53.327-21.344C177.125,170.658,201,180.221,201,192.002z"/>
	<path fill="#F6BB42" d="M147.665,224.001c-15.57,0-30.366-2.5-41.671-7.016c-19.421-7.766-22.327-18.984-22.327-24.983
		c0-6,2.906-17.219,22.327-25c11.305-4.516,26.101-7,41.671-7s30.375,2.484,41.679,7c19.421,7.781,22.32,19,22.32,25
		c0,5.999-2.898,17.218-22.32,24.983C178.039,221.501,163.234,224.001,147.665,224.001z M105.267,192.002
		c2.75,3.484,17.367,10.655,42.397,10.655c25.039,0,39.656-7.171,42.406-10.655c-2.75-3.5-17.367-10.672-42.406-10.672
		C122.634,181.33,108.017,188.502,105.267,192.002z"/>
	<path fill="#FFCE54" d="M307.653,192.002c0,11.78-23.875,21.327-53.319,21.327c-29.46,0-53.335-9.547-53.335-21.327
		c0-11.781,23.875-21.344,53.335-21.344C283.778,170.658,307.653,180.221,307.653,192.002z"/>
	<path fill="#F6BB42" d="M254.334,224.001c-15.57,0-30.375-2.5-41.679-7.016c-19.421-7.766-22.32-18.984-22.32-24.983
		c0-6,2.898-17.219,22.32-25c11.304-4.516,26.108-7,41.679-7c15.57,0,30.366,2.484,41.663,7c19.438,7.781,22.344,19,22.344,25
		c0,5.999-2.906,17.218-22.344,24.983C284.7,221.501,269.904,224.001,254.334,224.001z M211.929,192.002
		c2.75,3.484,17.367,10.655,42.405,10.655c25.038,0,39.647-7.171,42.397-10.655c-2.75-3.5-17.359-10.672-42.397-10.672
		C229.296,181.33,214.679,188.502,211.929,192.002z"/>
	<path fill="#FFCE54" d="M414.339,192.002c0,11.78-23.891,21.327-53.344,21.327c-29.451,0-53.342-9.547-53.342-21.327
		c0-11.781,23.891-21.344,53.342-21.344C390.448,170.658,414.339,180.221,414.339,192.002z"/>
	<path fill="#F6BB42" d="M360.995,224.001c-15.562,0-30.373-2.5-41.67-7.016c-19.422-7.766-22.328-18.984-22.328-24.983
		c0-6,2.906-17.219,22.328-25c11.297-4.516,26.108-7,41.67-7c15.562,0,30.375,2.484,41.672,7c19.422,7.781,22.328,19,22.328,25
		c0,5.999-2.906,17.218-22.328,24.983C391.37,221.501,376.558,224.001,360.995,224.001z M318.591,192.002
		c2.75,3.484,17.374,10.655,42.404,10.655c25.031,0,39.656-7.171,42.406-10.655c-2.75-3.5-17.375-10.672-42.406-10.672
		C335.965,181.33,321.341,188.502,318.591,192.002z"/>
	<path fill="#FFCE54" d="M360.995,155.127c0,11.781-23.874,21.328-53.342,21.328c-29.438,0-53.319-9.547-53.319-21.328
		c0-11.78,23.881-21.327,53.319-21.327C337.121,133.8,360.995,143.347,360.995,155.127z"/>
	<path fill="#F6BB42" d="M307.653,187.127c-15.562,0-30.359-2.484-41.663-7.016c-19.421-7.766-22.328-18.984-22.328-24.984
		s2.906-17.218,22.328-24.983c11.304-4.531,26.101-7.016,41.663-7.016c15.578,0,30.374,2.484,41.687,7.016
		c19.421,7.766,22.312,18.983,22.312,24.983s-2.891,17.219-22.312,24.984C338.027,184.643,323.231,187.127,307.653,187.127z
		 M265.264,155.127c2.75,3.484,17.358,10.672,42.39,10.672c25.046,0,39.655-7.188,42.405-10.672
		c-2.75-3.484-17.359-10.671-42.405-10.671C282.622,144.456,268.014,151.643,265.264,155.127z"/>
	<path fill="#FFCE54" d="M254.334,155.127c0,11.781-23.882,21.328-53.335,21.328s-53.335-9.547-53.335-21.328
		c0-11.78,23.882-21.327,53.335-21.327S254.334,143.347,254.334,155.127z"/>
	<path fill="#F6BB42" d="M201,187.127c-15.57,0-30.367-2.484-41.671-7.016c-19.429-7.766-22.328-18.984-22.328-24.984
		s2.898-17.218,22.328-24.983c11.304-4.531,26.101-7.016,41.671-7.016c15.57,0,30.367,2.484,41.671,7.016
		c19.429,7.766,22.328,18.983,22.328,24.983s-2.898,17.219-22.328,24.984C231.366,184.643,216.57,187.127,201,187.127z
		 M158.602,155.127c2.75,3.484,17.359,10.672,42.397,10.672s39.647-7.188,42.397-10.672c-2.75-3.484-17.359-10.671-42.397-10.671
		S161.352,151.643,158.602,155.127z"/>
	<path fill="#FFCE54" d="M307.653,118.003c0,11.781-23.875,21.328-53.319,21.328c-29.46,0-53.335-9.547-53.335-21.328
		c0-11.78,23.875-21.343,53.335-21.343C283.778,96.66,307.653,106.223,307.653,118.003z"/>
	<path fill="#F6BB42" d="M254.334,150.002c-15.57,0-30.375-2.499-41.679-7.015c-19.421-7.766-22.32-18.984-22.32-24.984
		s2.898-17.218,22.32-24.999c11.304-4.516,26.108-7,41.679-7c15.57,0,30.366,2.484,41.663,7
		c19.438,7.781,22.344,18.999,22.344,24.999s-2.906,17.219-22.344,24.984C284.7,147.503,269.904,150.002,254.334,150.002z
		 M211.929,118.003c2.75,3.484,17.367,10.656,42.405,10.656c25.038,0,39.647-7.172,42.397-10.656
		c-2.75-3.5-17.359-10.671-42.397-10.671C229.296,107.332,214.679,114.503,211.929,118.003z"/>
	<path fill="#A0D468" d="M490.649,128.003c0,5.891-4.766,10.656-10.655,10.656c-5.891,0-10.656-4.766-10.656-10.656
		s4.766-10.672,10.656-10.672C485.884,117.331,490.649,122.112,490.649,128.003z"/>
	<path fill="#AC92EB" d="M298.653,10.661c0,5.891-4.766,10.672-10.656,10.672s-10.656-4.781-10.656-10.672
		c0-5.89,4.766-10.655,10.656-10.655S298.653,4.771,298.653,10.661z"/>
	<path fill="#48CFAD" d="M170.664,64.005c0,5.891-4.773,10.655-10.664,10.655c-5.891,0-10.664-4.765-10.664-10.655
		S154.11,53.333,160,53.333C165.891,53.333,170.664,58.114,170.664,64.005z"/>
	<path fill="#FC6E51" d="M437.338,22.161V11.505c0-5.89-4.781-10.671-10.687-10.671c-5.875,0-10.656,4.781-10.656,10.671v10.656
		c-5.891,0-10.656,4.781-10.656,10.672s4.766,10.672,10.656,10.672v10.656c0,5.891,4.781,10.672,10.656,10.672
		c5.905,0,10.687-4.781,10.687-10.672V43.505c5.875,0,10.656-4.781,10.656-10.672S443.213,22.161,437.338,22.161z"/>
	<path fill="#ED5564" d="M53.339,85.332V74.66c0-5.89-4.781-10.655-10.671-10.655c-5.891,0-10.665,4.766-10.665,10.655v10.672
		c-5.89,0-10.664,4.781-10.664,10.672s4.773,10.656,10.664,10.656v10.671c0,5.891,4.773,10.672,10.665,10.672
		c5.89,0,10.671-4.781,10.671-10.672V106.66c5.891,0,10.664-4.766,10.664-10.656S59.229,85.332,53.339,85.332z"/>
	<path fill="#656D78" d="M457.26,310.232c-4.953-38.749-16.297-67.639-16.797-68.842c-1.594-4.062-5.531-6.734-9.906-6.734H81.432
		c-4.367,0-8.297,2.672-9.906,6.734c-0.484,1.203-11.835,30.093-16.789,68.842c-2.93,22.938-3,44.608-0.203,64.405
		c3.562,25.187,11.789,47.421,24.453,66.093c32.101,47.28,91.654,71.264,177.011,71.264s144.903-23.983,177.012-71.264
		c12.672-18.672,20.891-40.906,24.453-66.093C460.26,354.841,460.182,333.17,457.26,310.232z"/>
	<path opacity="0.1" fill="#FFFFFF" d="M457.26,310.232c-4.953-38.749-16.297-67.639-16.797-68.842
		c-1.594-4.062-5.531-6.734-9.906-6.734h-21.327c4.359,0,8.297,2.672,9.922,6.734c0.469,1.203,11.812,30.093,16.78,68.842
		c2.938,22.938,3,44.608,0.188,64.405c-3.547,25.187-11.78,47.421-24.437,66.093c-30.75,45.28-86.686,69.186-166.348,71.123
		c3.508,0.094,7.062,0.141,10.664,0.141c85.357,0,144.903-23.983,177.012-71.264c12.672-18.672,20.891-40.906,24.453-66.093
		C460.26,354.841,460.182,333.17,457.26,310.232z"/>
	<path fill="#434A54" d="M437.338,192.002H74.667c-17.64,0-31.999,14.343-31.999,31.999c0,17.64,14.359,31.999,31.999,31.999
		h362.671c17.625,0,32-14.359,32-31.999C469.338,206.345,454.963,192.002,437.338,192.002z"/>
	<path fill="#8CC153" d="M266.631,352.013h-50.967l-0.672,0.078c-24.054,3.078-38.109,12.109-41.765,26.859
		c-3.195,12.874,0.703,21.421,4.547,26.327c6.188,7.923,15.875,11.235,23.148,12.626c0.477,2.421,1.164,5.124,2.164,7.843
		c4.852,13.25,14.914,20.859,27.601,20.859c0.008,0,0.008,0,0.008,0c2.969,0,6.109-0.422,9.335-1.25
		c14.617-3.719,23.546-17.75,26.539-41.719l0.086-0.672L266.631,352.013z"/>
	<path fill="#A0D468" d="M338.668,378.622c-3.734-14.625-17.765-23.547-41.733-26.531l-0.656-0.094l-29.64,0.016v-29.671
		l-0.086-0.672c-3.062-24.046-12.101-38.108-26.851-41.765c-3.164-0.781-6.242-1.188-9.156-1.188
		c-7.688,0-14.507,2.766-19.718,7.984c-6.102,6.109-8.844,14.452-10.078,20.89c-7.257,1.438-16.914,4.797-23.062,12.75
		c-3.812,4.938-7.672,13.5-4.398,26.375c3.727,14.608,17.766,23.546,41.734,26.53l0.664,0.094l29.632-0.016v29.655l0.086,0.672
		c3.07,24.062,12.101,38.109,26.843,41.781c3.171,0.781,6.249,1.172,9.155,1.172l0,0c7.688,0,14.516-2.75,19.734-7.984
		c6.109-6.094,8.844-14.438,10.078-20.874c7.25-1.438,16.906-4.812,23.062-12.751C338.09,400.059,341.934,391.48,338.668,378.622z"
		/>
	<path fill="#8CC153" d="M334.184,320.045c-6.187-7.906-15.874-11.219-23.155-12.609c-0.469-2.438-1.156-5.125-2.156-7.858
		c-4.844-13.25-14.906-20.844-27.594-20.844c-2.969,0-6.125,0.422-9.351,1.234c-14.617,3.719-23.546,17.766-26.539,41.733
		l-0.086,0.656l0.023,50.968h50.967l0.672-0.094c24.062-3.062,38.108-12.094,41.78-26.843
		C341.934,333.514,338.027,324.951,334.184,320.045z"/>
</g>
</svg>
